<!-- Generated by IcoMoon.io -->
<svg version="1.1" xmlns="http://www.w3.org/2000/svg" width="59" height="32" viewBox="0 0 59 32">
<title>client1</title>
<path d="M24.348 8l2.438 2.308-4.524-0.003v11.196h11.826v-4.281l2.435 2.305v-11.525h-12.174zM33.98 16.949l-6.911-6.543h6.911v6.543zM31.834 19.863h-7.702v-7.53h0.544v7.020h7.157v0.51zM25.951 22.991h0.238l-0.414 0.781v0.455h-0.216v-0.455l-0.415-0.781h0.239l0.285 0.586 0.285-0.586zM26.308 24.227l0.1-0.288h0.479l0.101 0.288h0.224l-0.468-1.236h-0.193l-0.467 1.236h0.223zM26.648 23.253l0.179 0.513h-0.358l0.179-0.513zM27.781 23.737c0.031-0.048 0.093-0.105 0.184-0.171-0.048-0.061-0.082-0.112-0.101-0.155s-0.028-0.084-0.028-0.123c0-0.097 0.029-0.173 0.088-0.229s0.138-0.085 0.238-0.085c0.090 0 0.164 0.027 0.221 0.080s0.087 0.118 0.087 0.196c0 0.052-0.013 0.099-0.039 0.143s-0.069 0.086-0.128 0.129l-0.084 0.061 0.239 0.282c0.035-0.068 0.052-0.143 0.052-0.227h0.179c0 0.152-0.036 0.277-0.107 0.374l0.182 0.215h-0.239l-0.070-0.082c-0.088 0.066-0.194 0.099-0.316 0.099s-0.22-0.032-0.294-0.097c-0.073-0.065-0.11-0.15-0.11-0.254 0-0.057 0.016-0.11 0.047-0.157zM28.339 24.010l-0.27-0.318-0.026 0.019c-0.068 0.052-0.102 0.11-0.102 0.177 0 0.057 0.018 0.104 0.055 0.139s0.086 0.053 0.148 0.053c0.070 0 0.135-0.023 0.195-0.070zM28.117 23.462l0.094-0.065 0.026-0.021c0.035-0.031 0.053-0.071 0.053-0.12 0-0.032-0.012-0.060-0.037-0.082s-0.055-0.035-0.093-0.035c-0.040 0-0.072 0.014-0.096 0.041s-0.036 0.061-0.036 0.103c0 0.048 0.029 0.107 0.087 0.179zM30.13 24.134c-0.085 0.074-0.198 0.11-0.339 0.11-0.099 0-0.185-0.023-0.261-0.070s-0.132-0.113-0.173-0.2-0.062-0.186-0.064-0.3v-0.115c0-0.117 0.021-0.219 0.062-0.308s0.101-0.157 0.177-0.206c0.078-0.048 0.167-0.072 0.268-0.072 0.136 0 0.246 0.037 0.329 0.111s0.132 0.179 0.145 0.314h-0.214c-0.010-0.089-0.036-0.153-0.078-0.192s-0.102-0.059-0.183-0.059c-0.093 0-0.165 0.034-0.216 0.103s-0.075 0.168-0.076 0.3v0.11c0 0.134 0.024 0.235 0.071 0.306s0.118 0.105 0.211 0.105c0.084 0 0.148-0.019 0.19-0.057s0.069-0.101 0.081-0.189h0.214c-0.012 0.132-0.061 0.235-0.146 0.309zM31.392 23.961c-0.042 0.091-0.102 0.161-0.18 0.211s-0.167 0.073-0.268 0.073c-0.1 0-0.19-0.024-0.268-0.073s-0.139-0.119-0.182-0.21c-0.042-0.091-0.064-0.195-0.065-0.313v-0.070c0-0.121 0.021-0.227 0.064-0.319s0.103-0.163 0.181-0.211c0.078-0.049 0.168-0.074 0.268-0.074s0.19 0.024 0.267 0.073c0.078 0.048 0.138 0.118 0.181 0.209s0.064 0.196 0.065 0.317v0.069c0 0.121-0.021 0.228-0.063 0.319zM31.162 23.262c-0.052-0.073-0.125-0.11-0.22-0.11-0.093 0-0.166 0.037-0.218 0.11s-0.079 0.175-0.080 0.308v0.071c0 0.136 0.026 0.241 0.079 0.315s0.127 0.111 0.221 0.111c0.095 0 0.168-0.036 0.219-0.109s0.077-0.178 0.077-0.318v-0.065c0-0.137-0.026-0.242-0.078-0.315z"></path>
</svg>
